<?xml version="1.0" standalone="no"?>
<!DOCTYPE svg PUBLIC "-//W3C//DTD SVG 20010904//EN"
 "http://www.w3.org/TR/2001/REC-SVG-20010904/DTD/svg10.dtd">
<svg version="1.0" xmlns="http://www.w3.org/2000/svg"
 width="1192.000000pt" height="1192.000000pt" viewBox="0 0 1192.000000 1192.000000"
 preserveAspectRatio="xMidYMid meet">
<metadata>
Created by potrace 1.11, written by Peter Selinger 2001-2013
</metadata>
<g transform="translate(0.000000,1192.000000) scale(0.100000,-0.100000)"
fill="#000000" stroke="none">
<path d="M4368 8335 c-2 -1 -26 -5 -55 -9 -117 -14 -294 -85 -416 -168 -243
-165 -434 -473 -474 -768 -10 -71 -10 -290 0 -359 68 -473 438 -864 888 -936
93 -14 295 -13 354 3 22 6 51 13 65 16 128 23 324 133 446 250 l65 61 -97 100
c-53 55 -131 136 -174 180 l-78 80 -66 -62 c-101 -96 -203 -141 -332 -147
-197 -9 -389 111 -502 314 -107 192 -111 412 -11 618 54 111 171 234 269 280
209 99 420 62 587 -101 l52 -51 58 62 c32 33 109 113 171 176 61 63 112 119
112 124 0 14 -118 122 -170 156 -25 16 -56 37 -70 46 -60 41 -187 90 -300 117
-54 13 -312 27 -322 18z"/>
<path d="M190 8280 c0 -4 30 -28 68 -53 37 -25 148 -103 247 -172 99 -69 224
-156 277 -193 l98 -67 0 -832 0 -833 265 0 265 0 0 830 c0 657 3 830 13 831 6
1 118 2 249 3 130 0 239 4 243 8 8 7 7 467 0 479 -6 9 -1725 9 -1725 -1z"/>
<path d="M2105 7209 l0 -1079 682 0 c376 0 683 3 683 8 0 9 -122 363 -142 412
l-14 35 -340 0 -339 0 0 208 0 207 272 0 c217 0 273 3 273 13 0 7 -11 51 -24
97 -13 47 -38 141 -57 210 -18 69 -34 127 -37 130 -2 3 -97 5 -210 6 -114 1
-209 2 -212 3 -3 0 -5 83 -5 184 l0 182 333 0 c288 0 332 2 333 15 0 8 2 112
4 231 l3 217 -601 0 -602 0 0 -1079z"/>
<path d="M5423 7209 l0 -1079 263 0 264 0 1 38 c0 20 1 218 1 440 l1 402 341
-2 341 -3 0 -437 0 -438 265 0 265 0 -1 328 -1 327 -35 125 c-32 111 -45 162
-54 195 -1 6 -16 60 -33 120 -18 61 -34 119 -37 130 -2 11 -15 61 -29 110 -14
50 -27 97 -29 105 -2 8 -13 49 -24 90 -12 41 -30 111 -42 155 -11 44 -25 94
-31 111 -5 17 -11 40 -14 50 -5 25 -61 228 -77 277 -11 36 -13 37 -57 37 -25
0 -51 -4 -56 -8 -7 -5 -11 -137 -10 -394 l0 -388 -341 0 -342 0 0 368 c0 202
-1 379 -1 394 l-1 27 -264 -1 -263 -1 0 -1078z"/>
<path d="M8771 8014 c-277 -57 -433 -337 -433 -774 0 -58 2 -125 6 -150 3 -25
8 -63 11 -85 3 -22 7 -51 10 -65 4 -14 8 -35 11 -48 10 -48 55 -157 89 -211
117 -193 334 -276 566 -216 198 50 329 217 382 485 57 285 25 618 -77 803 -64
117 -148 196 -252 239 -81 33 -215 42 -313 22z m189 -349 c90 -46 131 -197
125 -455 -4 -195 -18 -268 -67 -347 -54 -90 -184 -101 -246 -22 -54 67 -84
225 -81 420 2 177 34 318 85 375 45 50 121 62 184 29z"/>
<path d="M11008 8019 c-108 -16 -178 -52 -259 -131 -100 -99 -175 -291 -193
-493 -7 -73 -8 -268 -1 -313 13 -100 17 -123 32 -182 46 -190 157 -346 286
-405 198 -91 440 -53 580 91 77 79 152 235 171 358 4 21 8 48 11 60 15 71 23
338 11 391 -2 12 -7 48 -11 80 -10 82 -50 206 -91 286 -102 194 -307 293 -536
258z m169 -357 c47 -26 94 -118 110 -219 10 -62 10 -342 0 -410 -9 -65 -41
-153 -68 -187 -30 -38 -71 -56 -128 -56 -39 0 -56 6 -81 26 -37 31 -78 108
-86 161 -3 21 -9 54 -13 74 -9 38 -6 342 3 398 32 191 140 278 263 213z"/>
<path d="M7614 8003 c-128 -18 -216 -63 -304 -153 -38 -40 -78 -87 -88 -105
l-20 -33 76 -48 c43 -26 114 -72 159 -101 45 -29 84 -53 86 -53 2 0 12 20 21
45 21 54 73 102 121 111 88 16 192 -32 221 -103 43 -102 -13 -239 -188 -459
-34 -44 -66 -83 -70 -89 -4 -5 -38 -48 -75 -95 -37 -47 -81 -103 -99 -125
l-32 -40 28 -105 c15 -58 33 -124 39 -147 l12 -43 409 0 410 0 0 170 c0 129
-3 170 -12 171 -7 0 -109 1 -225 1 -117 1 -213 4 -213 7 0 3 13 20 28 36 51
55 197 239 235 298 87 132 126 261 121 402 -12 313 -287 509 -640 458z"/>
<path d="M9849 8006 c-2 -3 -23 -7 -47 -11 -126 -19 -228 -82 -323 -203 -49
-61 -58 -77 -47 -87 14 -14 297 -195 304 -195 2 0 11 17 19 38 51 122 185 156
294 75 69 -53 82 -155 33 -263 -19 -42 -110 -183 -146 -226 -20 -25 -271 -341
-414 -521 -61 -79 -112 -144 -112 -146 0 -2 252 -4 560 -4 l560 -1 0 172 0
172 -212 -1 c-117 -1 -218 1 -225 3 -7 2 21 43 65 95 224 264 300 408 307 584
9 243 -121 426 -355 498 -49 15 -251 31 -261 21z"/>
<path d="M3675 5800 c-12 -4 0 -48 57 -215 39 -116 174 -516 300 -890 325
-967 360 -1068 368 -1083 4 -8 122 180 306 485 164 274 301 502 303 508 2 5
10 18 19 28 17 19 21 16 58 -53 105 -196 549 -978 553 -974 6 5 57 140 111
289 16 44 72 197 125 340 53 143 108 290 121 327 13 36 82 225 154 420 72 194
133 360 135 368 2 8 40 111 85 229 44 118 78 217 75 219 -4 4 -436 6 -536 3
-23 -1 -28 -8 -44 -63 -10 -35 -19 -67 -20 -73 -2 -5 -33 -106 -70 -224 -37
-118 -68 -221 -70 -230 -6 -25 -125 -414 -134 -436 -7 -17 -15 -7 -49 60 -22
44 -139 275 -259 513 -121 239 -223 435 -227 435 -7 2 -28 -30 -40 -63 -4 -8
-21 -42 -39 -75 -18 -33 -73 -136 -121 -230 -49 -93 -110 -210 -136 -260 -111
-211 -174 -331 -184 -352 -6 -13 -14 -23 -17 -23 -4 0 -51 148 -54 170 -1 6
-41 142 -55 185 -5 17 -50 169 -99 338 -50 170 -94 314 -98 320 -6 9 -75 12
-256 12 -136 0 -254 -2 -262 -5z"/>
<path d="M6640 5800 c-5 -3 -8 -489 -8 -1081 l0 -1076 684 0 c489 0 684 3 684
11 0 6 -27 108 -59 226 l-59 215 -358 5 -359 5 0 203 c0 111 2 203 5 203 3 1
136 3 295 4 160 1 293 3 297 4 3 0 0 25 -8 54 -22 77 -72 263 -90 334 l-16 63
-242 2 -241 3 0 183 c0 176 0 182 20 183 11 0 95 1 188 1 117 0 167 4 167 12
0 21 -112 431 -121 440 -8 9 -764 15 -779 6z"/>
<path d="M7804 5802 l-31 -3 29 -107 c16 -59 30 -114 32 -122 24 -97 59 -216
66 -220 5 -3 166 -5 359 -5 l351 0 0 -30 c2 -62 2 -222 1 -276 l-1 -56 -300 0
c-165 0 -303 -3 -307 -6 -5 -5 104 -432 113 -446 2 -2 114 -4 249 -5 l247 -1
-1 -170 c0 -93 -1 -189 -1 -211 l0 -41 -185 0 c-102 0 -187 -2 -189 -4 -4 -4
110 -435 119 -449 2 -4 181 -6 397 -6 l393 1 0 1073 c0 634 -4 1076 -9 1079
-9 6 -1276 10 -1332 5z"/>
<path d="M9379 5785 c-4 -109 0 -2125 4 -2131 3 -5 117 -9 254 -9 l248 0 0
473 c0 259 2 472 5 472 3 0 24 -28 47 -62 68 -104 441 -676 510 -780 35 -54
66 -99 71 -99 17 -3 562 -4 562 -1 0 9 -31 60 -115 187 -51 77 -139 212 -197
300 -57 88 -162 247 -231 353 -70 105 -127 197 -127 203 0 5 68 121 151 257
84 136 201 328 262 427 61 99 143 234 184 299 40 66 69 122 64 125 -5 3 -132
6 -282 5 -258 -1 -273 -2 -288 -20 -9 -11 -58 -90 -109 -175 -52 -84 -138
-226 -192 -314 -55 -88 -107 -173 -116 -189 -24 -43 -170 -278 -186 -299 -11
-15 -13 64 -13 483 0 276 -2 505 -5 508 -3 4 -116 7 -253 7 -240 0 -247 -1
-248 -20z"/>
</g>
</svg>
